<svg width="26" height="28" viewBox="0 0 26 28" fill="none" xmlns="http://www.w3.org/2000/svg">
<path d="M21.3845 17.2952V22.7776H4.61464V17.2952H1.39148V24.3892C1.39148 25.2787 2.11201 26 3.00546 26H22.9937C23.8864 26 24.6077 25.2795 24.6077 24.3892V17.2952H21.3845Z" fill="white" stroke="white" stroke-width="2.1349"/>
<path d="M12.7046 16.7516L8.08998 11.1755C8.08998 11.1755 7.38787 10.5126 8.14922 10.5126C8.91058 10.5126 10.7495 10.5126 10.7495 10.5126C10.7495 10.5126 10.7495 10.0667 10.7495 9.37901C10.7495 7.41837 10.7495 3.85016 10.7495 2.39549C10.7495 2.39549 10.6463 2 11.2419 2C11.8423 2 14.4723 2 14.9022 2C15.3313 2 15.3217 2.33304 15.3217 2.33304C15.3217 3.74368 15.3217 7.43519 15.3217 9.33178C15.3217 9.94663 15.3217 10.3453 15.3217 10.3453C15.3217 10.3453 16.7964 10.3453 17.7218 10.3453C18.6457 10.3453 17.95 11.0394 17.95 11.0394C17.95 11.0394 14.0239 16.2512 13.4763 16.7981C13.0824 17.1943 12.7046 16.7516 12.7046 16.7516Z" fill="white" stroke="white" stroke-width="2.1349"/>
</svg>
