<svg width="18" height="16" viewBox="0 0 18 16" fill="none" xmlns="http://www.w3.org/2000/svg">
<path d="M8.39291 0.440369C3.71672 0.440369 -0.000549293 3.55819 -0.000549316 7.63491C-0.000549316 9.91328 1.31836 11.8316 3.35672 13.2706L2.51781 15.7884L5.51563 14.3495C6.59454 14.5895 7.434 14.8289 8.51345 14.8289H9.35291C9.23291 14.2295 9.11345 13.63 9.11345 13.0306C9.11345 9.31382 12.2307 6.31546 16.3075 6.31546H17.1469C16.1869 2.95819 12.5896 0.440369 8.39291 0.440369ZM5.75509 6.076C5.15563 6.076 4.43618 5.71601 4.43618 4.99655C4.43618 4.39655 5.03618 3.9171 5.75509 3.9171C6.35454 3.9171 6.83454 4.2771 6.83454 4.99655C6.71454 5.71601 6.35509 6.076 5.75509 6.076ZM11.6307 6.076C11.0313 6.076 10.3118 5.71601 10.3118 4.99655C10.3118 4.39655 10.9113 3.9171 11.6307 3.9171C12.2302 3.9171 12.7102 4.2771 12.7102 4.99655C12.7096 5.71601 12.2302 6.076 11.6307 6.076Z" fill="#04AE0F"/>
</svg>
