<svg width="24" height="24" viewBox="0 0 24 24" fill="none" xmlns="http://www.w3.org/2000/svg">
<g clip-path="url(#clip0_6_24)">
<path d="M23.9804 15.0306C23.9804 11.6733 20.6231 8.91547 16.7864 8.91547C12.8297 8.91547 9.59238 11.6733 9.59238 15.0306C9.59238 18.3878 12.7097 21.1456 16.7864 21.1456C17.6258 21.1456 18.4653 20.9056 19.3042 20.6662L21.5826 21.9851L20.9831 19.8267C22.662 18.5078 23.9804 16.8289 23.9804 15.0306ZM14.5086 13.9511C14.0291 13.9511 13.6691 13.5911 13.6691 13.1116C13.6691 12.7522 14.1486 12.2722 14.5086 12.2722C15.108 12.2722 15.588 12.6322 15.588 13.1116C15.5875 13.4716 15.108 13.9511 14.5086 13.9511ZM19.0647 13.9511C18.7053 13.9511 18.2253 13.5911 18.2253 13.1116C18.2253 12.7522 18.7047 12.2722 19.0647 12.2722C19.6642 12.2722 20.1442 12.6322 20.1442 13.1116C20.1442 13.4716 19.7842 13.9511 19.0647 13.9511Z" fill="#04AE0F"/>
<path d="M8.39291 2.44037C3.71672 2.44037 -0.000549293 5.55819 -0.000549316 9.63491C-0.000549316 11.9133 1.31836 13.8316 3.35672 15.2706L2.51781 17.7884L5.51563 16.3495C6.59454 16.5895 7.434 16.8289 8.51345 16.8289H9.35291C9.23291 16.2295 9.11345 15.63 9.11345 15.0306C9.11345 11.3138 12.2307 8.31546 16.3075 8.31546H17.1469C16.1869 4.95819 12.5896 2.44037 8.39291 2.44037ZM5.75509 8.076C5.15563 8.076 4.43618 7.71601 4.43618 6.99655C4.43618 6.39655 5.03618 5.9171 5.75509 5.9171C6.35454 5.9171 6.83454 6.2771 6.83454 6.99655C6.71454 7.71601 6.35509 8.076 5.75509 8.076ZM11.6307 8.076C11.0313 8.076 10.3118 7.71601 10.3118 6.99655C10.3118 6.39655 10.9113 5.9171 11.6307 5.9171C12.2302 5.9171 12.7102 6.2771 12.7102 6.99655C12.7096 7.71601 12.2302 8.076 11.6307 8.076Z" fill="#04AE0F"/>
</g>
<defs>
<clipPath id="clip0_6_24">
<rect width="24" height="24" fill="white"/>
</clipPath>
</defs>
</svg>
