<svg width="471" height="318" viewBox="0 0 471 318" fill="none" xmlns="http://www.w3.org/2000/svg">
<path fill-rule="evenodd" clip-rule="evenodd" d="M368.961 0.244049C369.505 18.505 382.669 25.594 394.451 24.116C379.146 30.321 361.387 44.656 362.415 63.35C354.853 58.291 347.031 51.8 342.865 51.8C338.703 51.8 327.359 56.733 318.066 59.799C323.054 52.133 331.213 44.31 331.213 40.148C331.213 35.986 324.692 29.786 321.281 24.0271C334.765 20.4 354.933 15.674 368.961 0.244049Z" fill="#C99B45"/>
<path fill-rule="evenodd" clip-rule="evenodd" d="M292.472 3.61385C289.986 18.6738 301.394 24.3348 314.553 24.1918C303.336 28.0458 287.299 42.8108 287.594 56.6228C281.835 55.0858 274.603 48.4718 270.44 48.4718C266.279 48.4718 257.323 53.4388 249.851 54.8628C251.337 49.0408 259.619 41.8118 259.619 37.6498C259.619 33.4888 254.766 29.7858 251.341 24.0608C264.564 19.3768 278.162 17.9358 292.472 3.61385Z" fill="#C99B45"/>
<path fill-rule="evenodd" clip-rule="evenodd" d="M224.256 43.5939C219.344 53.8769 232.496 66.8299 241.337 64.5049C229.395 67.6009 219.871 81.5739 219.218 93.3219C213.371 89.9479 207.175 85.0949 203.013 85.0949C198.851 85.0949 190.788 90.0449 184.87 91.4269C188.168 85.4659 194.689 79.2689 194.689 75.1069C194.689 70.9459 188.117 66.3199 186.487 62.1839C196.77 61.7879 213.341 59.2599 224.256 43.5939Z" fill="#C99B45"/>
<path fill-rule="evenodd" clip-rule="evenodd" d="M194.537 100.458C195.148 104.586 199.684 118.917 213.644 119.561C203.21 122.544 194.271 133.542 194.31 143.227C190.152 141.609 185.531 136.702 181.369 136.702C177.207 136.702 170.808 139.988 164.924 141.407C166.473 137.161 173.045 131.706 173.045 127.544C173.045 123.382 168.138 119.595 166.528 115.429C175.189 115.686 185.485 114.144 194.537 100.458Z" fill="#C99B45"/>
<path fill-rule="evenodd" clip-rule="evenodd" d="M289.704 191.754C290.332 195.887 289.704 203.14 302.931 204.315C301.823 205.356 292.918 208.284 292.505 221.49C288.386 219.851 285.429 216.608 281.267 216.608C277.101 216.608 274.363 218.031 271.789 219.876C271.275 217.441 276.271 214.943 276.271 210.782C276.271 206.619 273.183 206.376 271.3 203.928C276.435 201.872 283.979 200.899 289.704 191.754Z" fill="#C99B45"/>
<path fill-rule="evenodd" clip-rule="evenodd" d="M285.64 236.612C286.879 242.307 290.248 246.368 296.247 247.357C291.592 248.853 283.332 255.576 284.262 263.053C280.063 261.469 278.769 258.226 274.603 258.226C270.441 258.226 269.367 259.65 266.793 261.495C266.279 259.06 269.611 258.226 269.611 254.064C269.611 249.902 266.279 249.072 266.667 246.705C271.006 248.318 278.516 245.243 285.64 236.612Z" fill="#C99B45"/>
<path fill-rule="evenodd" clip-rule="evenodd" d="M248.924 274.882C250.036 277.848 251.469 281.967 257.943 283.876C252.589 288.054 247.922 292.616 245.66 298.159C243.216 296.273 242.972 293.185 238.81 293.185C234.648 293.185 234.404 294.608 231.83 296.454C231.316 294.018 234.648 294.018 234.648 289.857C234.648 285.695 231.316 285.695 231.582 283.42C235.124 283.408 244.939 281.361 248.924 274.882Z" fill="#C99B45"/>
<path fill-rule="evenodd" clip-rule="evenodd" d="M230.562 130.088C231.139 134.014 235.449 147.628 248.713 148.239C238.797 151.07 230.305 161.521 230.343 170.721C226.396 169.184 222.003 164.524 218.051 164.524C214.096 164.524 208.017 167.646 202.427 168.994C203.897 164.958 210.14 159.777 210.14 155.826C210.14 151.87 205.482 148.269 203.948 144.313C212.179 144.558 221.96 143.092 230.562 130.088Z" fill="#C99B45"/>
<path fill-rule="evenodd" clip-rule="evenodd" d="M270.032 154.849C270.55 158.391 274.442 170.679 286.414 171.231C277.466 173.788 269.8 183.215 269.834 191.518C266.27 190.132 262.31 185.924 258.738 185.924C255.17 185.924 249.686 188.742 244.639 189.959C245.966 186.32 251.602 181.644 251.602 178.077C251.602 174.508 247.394 171.256 246.017 167.684C253.443 167.907 262.268 166.584 270.032 154.849Z" fill="#C99B45"/>
<path fill-rule="evenodd" clip-rule="evenodd" d="M200.561 294.731C201.509 299.087 204.087 302.191 208.678 302.949C205.114 304.095 198.796 309.239 199.508 314.959C196.294 313.746 195.304 311.265 192.119 311.265C188.935 311.265 188.113 312.351 186.146 313.763C185.754 311.901 188.298 311.265 188.298 308.08C188.298 304.9 185.754 304.26 186.049 302.452C189.369 303.686 195.114 301.332 200.561 294.731Z" fill="#C99B45"/>
<path fill-rule="evenodd" clip-rule="evenodd" d="M159.022 297.418C159.97 301.778 162.548 304.883 167.136 305.64C163.576 306.782 157.257 311.926 157.969 317.646C154.755 316.433 153.765 313.956 150.58 313.956C147.396 313.956 146.575 315.043 144.607 316.454C144.211 314.592 146.76 313.956 146.76 310.772C146.76 307.587 144.211 306.951 144.506 305.139C147.826 306.374 153.571 304.019 159.022 297.418Z" fill="#C99B45"/>
<path fill-rule="evenodd" clip-rule="evenodd" d="M124.779 296.495C125.546 300.025 127.635 302.536 131.355 303.151C128.469 304.077 123.351 308.244 123.928 312.878C121.321 311.896 120.52 309.887 117.942 309.887C115.364 309.887 114.699 310.767 113.102 311.909C112.786 310.401 114.846 309.887 114.846 307.308C114.846 304.73 112.786 304.213 113.022 302.746C115.71 303.745 120.369 301.841 124.779 296.495Z" fill="#C99B45"/>
<path fill-rule="evenodd" clip-rule="evenodd" d="M95.6333 291.335C96.3243 294.511 98.2033 296.778 101.547 297.329C98.9533 298.163 94.3443 301.912 94.8663 306.083C92.5203 305.198 91.8003 303.391 89.4793 303.391C87.1583 303.391 86.5593 304.183 85.1233 305.211C84.8363 303.855 86.6943 303.391 86.6943 301.07C86.6943 298.749 84.8363 298.286 85.0523 296.963C87.4733 297.865 91.6613 296.15 95.6333 291.335Z" fill="#C99B45"/>
<path fill-rule="evenodd" clip-rule="evenodd" d="M0.845398 225.777L7.8884 225.078C8.3094 227.433 9.1654 229.16 10.4544 230.264C11.7424 231.367 13.4784 231.919 15.6684 231.919C17.9854 231.919 19.7294 231.43 20.9054 230.445C22.0804 229.464 22.6704 228.313 22.6704 226.999C22.6704 226.153 22.4214 225.436 21.9284 224.842C21.4354 224.249 20.5724 223.734 19.3424 223.297C18.4994 223.002 16.5834 222.479 13.5874 221.729C9.7334 220.769 7.0294 219.585 5.4744 218.183C3.2884 216.211 2.1934 213.806 2.1934 210.967C2.1934 209.143 2.7114 207.432 3.7394 205.845C4.7674 204.252 6.2494 203.043 8.1874 202.209C10.1254 201.379 12.4634 200.962 15.2014 200.962C19.6744 200.962 23.0404 201.956 25.2984 203.94C27.5604 205.928 28.7484 208.583 28.8624 211.897L21.6214 212.146C21.3134 210.301 20.6564 208.974 19.6494 208.165C18.6384 207.356 17.1264 206.952 15.1134 206.952C13.0314 206.952 11.4014 207.386 10.2224 208.25C9.4634 208.805 9.0854 209.551 9.0854 210.478C9.0854 211.329 9.4424 212.054 10.1544 212.66C11.0644 213.427 13.2714 214.227 16.7724 215.057C20.2774 215.887 22.8674 216.746 24.5444 217.63C26.2254 218.519 27.5394 219.729 28.4874 221.266C29.4344 222.803 29.9114 224.703 29.9114 226.961C29.9114 229.012 29.3424 230.929 28.2004 232.719C27.0634 234.51 25.4544 235.837 23.3734 236.708C21.2964 237.576 18.7014 238.01 15.5974 238.01C11.0774 238.01 7.6104 236.969 5.1884 234.889C2.7664 232.804 1.3164 229.766 0.845398 225.777Z" fill="#103D65"/>
<path fill-rule="evenodd" clip-rule="evenodd" d="M41.6134 201.611H48.8544V220.984C48.8544 224.059 48.9424 226.055 49.1204 226.965C49.4234 228.427 50.1514 229.602 51.3024 230.492C52.4564 231.375 54.0274 231.822 56.0234 231.822C58.0504 231.822 59.5834 231.401 60.6114 230.563C61.6434 229.725 62.2624 228.697 62.4734 227.475C62.6794 226.258 62.7854 224.232 62.7854 221.401V201.611H70.0264V220.411C70.0264 224.707 69.8324 227.741 69.4404 229.518C69.0534 231.292 68.3364 232.787 67.2924 234.009C66.2474 235.23 64.8484 236.203 63.0964 236.923C61.3484 237.649 59.0654 238.01 56.2434 238.01C52.8434 238.01 50.2614 237.618 48.5054 236.827C46.7444 236.039 45.3544 235.015 44.3344 233.752C43.3154 232.492 42.6414 231.169 42.3164 229.784C41.8494 227.732 41.6134 224.707 41.6134 220.701V201.611Z" fill="#103D65"/>
<path fill-rule="evenodd" clip-rule="evenodd" d="M83.2154 237.362V201.611H94.0584L100.469 225.997L106.804 201.611H117.672V237.362H110.979L110.954 209.219L103.906 237.362H96.9474L89.9294 209.219L89.9044 237.362H83.2154Z" fill="#103D65"/>
<path fill-rule="evenodd" clip-rule="evenodd" d="M130.479 237.362V201.611H141.322L147.733 225.997L154.069 201.611H164.937V237.362H158.243L158.218 209.219L151.17 237.362H144.212L137.194 209.219L137.172 237.362H130.479Z" fill="#103D65"/>
<path fill-rule="evenodd" clip-rule="evenodd" d="M177.843 237.362V201.611H204.309V207.652H185.084V215.592H202.961V221.633H185.084V231.321H205.009V237.362H177.843Z" fill="#103D65"/>
<path fill-rule="evenodd" clip-rule="evenodd" d="M223.952 216.742H229.289C232.752 216.742 234.913 216.595 235.777 216.3C236.64 216.01 237.314 215.504 237.803 214.788C238.288 214.072 238.531 213.174 238.531 212.1C238.531 210.896 238.211 209.922 237.567 209.181C236.926 208.44 236.021 207.972 234.85 207.774C234.264 207.694 232.507 207.652 229.584 207.652H223.952V216.742ZM216.711 237.362V201.611H231.913C235.738 201.611 238.519 201.931 240.25 202.576C241.981 203.216 243.367 204.358 244.412 206.001C245.452 207.643 245.971 209.522 245.971 211.632C245.971 214.316 245.187 216.531 243.616 218.28C242.045 220.028 239.694 221.128 236.565 221.582C238.119 222.492 239.403 223.495 240.414 224.582C241.425 225.672 242.79 227.606 244.504 230.386L248.869 237.362H240.237L235.06 229.561C233.203 226.789 231.931 225.041 231.244 224.321C230.557 223.596 229.833 223.103 229.066 222.833C228.299 222.568 227.082 222.433 225.418 222.433H223.952V237.362H216.711Z" fill="#103D65"/>
<path fill-rule="evenodd" clip-rule="evenodd" d="M324.832 237.362V207.652H314.25V201.611H342.613V207.652H332.073V237.362H324.832Z" fill="#103D65"/>
<path fill-rule="evenodd" clip-rule="evenodd" d="M358.08 219.463C358.08 223.516 359.015 226.59 360.89 228.684C362.764 230.774 365.145 231.823 368.03 231.823C370.915 231.823 373.278 230.782 375.128 228.705C376.982 226.633 377.904 223.516 377.904 219.366C377.904 215.263 377.002 212.201 375.204 210.183C373.401 208.165 371.013 207.155 368.03 207.155C365.047 207.155 362.642 208.174 360.819 210.217C358.995 212.264 358.08 215.343 358.08 219.463ZM350.641 219.707C350.641 216.06 351.185 212.993 352.275 210.52C353.089 208.692 354.201 207.057 355.607 205.604C357.015 204.155 358.557 203.081 360.233 202.382C362.461 201.434 365.031 200.962 367.942 200.962C373.216 200.962 377.432 202.601 380.595 205.874C383.764 209.151 385.347 213.705 385.347 219.534C385.347 225.319 383.776 229.847 380.634 233.111C377.496 236.38 373.296 238.011 368.043 238.011C362.723 238.011 358.489 236.389 355.351 233.137C352.208 229.885 350.641 225.411 350.641 219.707Z" fill="#103D65"/>
<path fill-rule="evenodd" clip-rule="evenodd" d="M396.565 201.611H403.806V220.984C403.806 224.059 403.895 226.055 404.072 226.965C404.379 228.427 405.108 229.602 406.258 230.492C407.408 231.375 408.984 231.822 410.976 231.822C413.006 231.822 414.535 231.401 415.567 230.563C416.595 229.725 417.215 228.697 417.425 227.475C417.636 226.258 417.741 224.232 417.741 221.401V201.611H424.978V220.411C424.978 224.707 424.784 227.741 424.397 229.518C424.009 231.292 423.289 232.787 422.244 234.009C421.2 235.23 419.801 236.203 418.052 236.923C416.301 237.649 414.017 238.01 411.199 238.01C407.796 238.01 405.213 237.618 403.457 236.827C401.7 236.039 400.31 235.015 399.291 233.752C398.267 232.492 397.597 231.169 397.269 229.784C396.801 227.732 396.565 224.707 396.565 220.701V201.611Z" fill="#103D65"/>
<path fill-rule="evenodd" clip-rule="evenodd" d="M445.509 216.742H450.851C454.313 216.742 456.474 216.595 457.337 216.3C458.197 216.01 458.871 215.504 459.359 214.788C459.848 214.072 460.092 213.174 460.092 212.1C460.092 210.896 459.768 209.922 459.128 209.181C458.483 208.44 457.578 207.972 456.411 207.774C455.826 207.694 454.069 207.652 451.141 207.652H445.509V216.742ZM438.268 237.362V201.611H453.475C457.295 201.611 460.076 201.931 461.807 202.576C463.543 203.216 464.928 204.358 465.969 206.001C467.009 207.643 467.532 209.522 467.532 211.632C467.532 214.316 466.744 216.531 465.172 218.28C463.602 220.028 461.251 221.128 458.125 221.582C459.68 222.492 460.96 223.495 461.971 224.582C462.982 225.672 464.347 227.606 466.066 230.386L470.43 237.362H461.799L456.621 229.561C454.759 226.789 453.488 225.041 452.801 224.321C452.118 223.596 451.39 223.103 450.623 222.833C449.856 222.568 448.643 222.433 446.98 222.433H445.509V237.362H438.268Z" fill="#103D65"/>
</svg>
